#Comment line ignore any data following # character 
#Hierarchical Translation and Rotation (.htr) file 
[Header]	
#Header keywords are followed by a single value 
FileType HTR		#Single word string
DataType HTRS		#Translation followed by rotation and scale data
FileVersion 1		#integer
NumSegments 64		#integer
NumFrames 3		#integer
DataFrameRate 30		#integer, data frame rate in this file
EulerRotationOrder ZYX
CalibrationUnits mm
RotationUnits Degrees
GlobalAxisofGravity Y
BoneLengthAxis Y
ScaleFactor 1.00
[SegmentNames&Hierarchy]
#CHILD	PARENT
Pinger_Root GLOBAL
Pelvis Pinger_Root
L_Hip Pelvis
R_Hip Pelvis
Rear_Leg01 Pelvis
Spine1 Pelvis
L_Leg01 L_Hip
L_Leg02 L_Leg01
L_Leg03 L_Leg02
L_Foot L_Leg03
L_Toe1_01 L_Foot
L_Toe2_01 L_Foot
L_Toe3_01 L_Foot
planeAlignerLeft L_Foot
L_Toe1_02 L_Toe1_01
L_Toe1_03 L_Toe1_02
L_Toe2_02 L_Toe2_01
L_Toe2_03 L_Toe2_02
L_Toe3_02 L_Toe3_01
L_Toe3_03 L_Toe3_02
planeLockWeightLeft planeAlignerLeft
R_Leg01 R_Hip
R_Leg02 R_Leg01
R_Leg03 R_Leg02
R_Foot R_Leg03
planeAlignerRight R_Foot
R_Toe1_01 R_Foot
R_Toe2_01 R_Foot
R_Toe3_01 R_Foot
planeLockWeightRight planeAlignerRight
R_Toe1_02 R_Toe1_01
R_Toe1_03 R_Toe1_02
R_Toe2_02 R_Toe2_01
R_Toe2_03 R_Toe2_02
R_Toe3_02 R_Toe3_01
R_Toe3_03 R_Toe3_02
Rear_Leg02 Rear_Leg01
Rear_Leg03 Rear_Leg02
Rear_Leg04 Rear_Leg03
Rear_Foot Rear_Leg04
planeAlignerCenter Rear_Foot
Rear_Toe1_01 Rear_Foot
Rear_Toe2_01 Rear_Foot
Rear_Toe3_01 Rear_Foot
planeLockWeightCenter planeAlignerCenter
Rear_Toe1_02 Rear_Toe1_01
Rear_Toe1_03 Rear_Toe1_02
Rear_Toe2_02 Rear_Toe2_01
Rear_Toe2_03 Rear_Toe2_02
Rear_Toe3_02 Rear_Toe3_01
Rear_Toe3_03 Rear_Toe3_02
Back_Bone Spine1
Head Spine1
Motor_Bone Back_Bone
Ping_Mechanism Back_Bone
BN_LookIK Head
bottomMouth Head
L_Mouth01 Head
L_mouthFront Head
mouthGun Head
R_Mouth01 Head
R_mouthFront Head
TopMouth Head
weapon_bone Head
[BasePosition]
#SegmentName Tx, Ty, Tz, Rx, Ry, Rz, BoneLength
Pinger_Root 0.000000 0.000000 0.000000 -90.000000 0.000000 0.000000 10.000000 
Pelvis 0.000000 0.000000 0.000000 0.000000 0.000000 0.000000 10.000000 
L_Hip 0.000000 0.000000 0.000000 0.000000 0.000000 0.000000 10.000000 
R_Hip 0.000000 0.000000 0.000000 0.000000 0.000000 0.000000 10.000000 
Rear_Leg01 0.000000 0.000000 0.000000 0.000000 0.000000 0.000000 10.000000 
Spine1 0.000000 0.000000 0.000000 0.000000 0.000000 0.000000 10.000000 
L_Leg01 0.000000 0.000000 0.000000 0.000000 0.000000 0.000000 10.000000 
L_Leg02 0.000000 0.000000 0.000000 0.000000 0.000000 0.000000 10.000000 
L_Leg03 0.000000 0.000000 0.000000 0.000000 0.000000 0.000000 10.000000 
L_Foot 0.000000 0.000000 0.000000 0.000000 0.000000 0.000000 10.000000 
L_Toe1_01 0.000000 0.000000 0.000000 0.000000 0.000000 0.000000 10.000000 
L_Toe2_01 0.000000 0.000000 0.000000 0.000000 0.000000 0.000000 10.000000 
L_Toe3_01 0.000000 0.000000 0.000000 0.000000 0.000000 0.000000 10.000000 
planeAlignerLeft 0.000000 0.000000 0.000000 0.000000 0.000000 0.000000 10.000000 
L_Toe1_02 0.000000 0.000000 0.000000 0.000000 0.000000 0.000000 10.000000 
L_Toe1_03 0.000000 0.000000 0.000000 0.000000 0.000000 0.000000 10.000000 
L_Toe2_02 0.000000 0.000000 0.000000 0.000000 0.000000 0.000000 10.000000 
L_Toe2_03 0.000000 0.000000 0.000000 0.000000 0.000000 0.000000 10.000000 
L_Toe3_02 0.000000 0.000000 0.000000 0.000000 0.000000 0.000000 10.000000 
L_Toe3_03 0.000000 0.000000 0.000000 0.000000 0.000000 0.000000 10.000000 
planeLockWeightLeft 0.000000 0.000000 0.000000 0.000000 0.000000 0.000000 10.000000 
R_Leg01 0.000000 0.000000 0.000000 0.000000 0.000000 0.000000 10.000000 
R_Leg02 0.000000 0.000000 0.000000 0.000000 0.000000 0.000000 10.000000 
R_Leg03 0.000000 0.000000 0.000000 0.000000 0.000000 0.000000 10.000000 
R_Foot 0.000000 0.000000 0.000000 0.000000 0.000000 0.000000 10.000000 
planeAlignerRight 0.000000 0.000000 0.000000 0.000000 0.000000 0.000000 10.000000 
R_Toe1_01 0.000000 0.000000 0.000000 0.000000 0.000000 0.000000 10.000000 
R_Toe2_01 0.000000 0.000000 0.000000 0.000000 0.000000 0.000000 10.000000 
R_Toe3_01 0.000000 0.000000 0.000000 0.000000 0.000000 0.000000 10.000000 
planeLockWeightRight 0.000000 0.000000 0.000000 0.000000 0.000000 0.000000 10.000000 
R_Toe1_02 0.000000 0.000000 0.000000 0.000000 0.000000 0.000000 10.000000 
R_Toe1_03 0.000000 0.000000 0.000000 0.000000 0.000000 0.000000 10.000000 
R_Toe2_02 0.000000 0.000000 0.000000 0.000000 0.000000 0.000000 10.000000 
R_Toe2_03 0.000000 0.000000 0.000000 0.000000 0.000000 0.000000 10.000000 
R_Toe3_02 0.000000 0.000000 0.000000 0.000000 0.000000 0.000000 10.000000 
R_Toe3_03 0.000000 0.000000 0.000000 0.000000 0.000000 0.000000 10.000000 
Rear_Leg02 0.000000 0.000000 0.000000 0.000000 0.000000 0.000000 10.000000 
Rear_Leg03 0.000000 0.000000 0.000000 0.000000 0.000000 0.000000 10.000000 
Rear_Leg04 0.000000 0.000000 0.000000 0.000000 0.000000 0.000000 10.000000 
Rear_Foot 0.000000 0.000000 0.000000 0.000000 0.000000 0.000000 10.000000 
planeAlignerCenter 0.000000 0.000000 0.000000 0.000000 0.000000 0.000000 10.000000 
Rear_Toe1_01 0.000000 0.000000 0.000000 0.000000 0.000000 0.000000 10.000000 
Rear_Toe2_01 0.000000 0.000000 0.000000 0.000000 0.000000 0.000000 10.000000 
Rear_Toe3_01 0.000000 0.000000 0.000000 0.000000 0.000000 0.000000 10.000000 
planeLockWeightCenter 0.000000 0.000000 0.000000 0.000000 0.000000 0.000000 10.000000 
Rear_Toe1_02 0.000000 0.000000 0.000000 0.000000 0.000000 0.000000 10.000000 
Rear_Toe1_03 0.000000 0.000000 0.000000 0.000000 0.000000 0.000000 10.000000 
Rear_Toe2_02 0.000000 0.000000 0.000000 0.000000 0.000000 0.000000 10.000000 
Rear_Toe2_03 0.000000 0.000000 0.000000 0.000000 0.000000 0.000000 10.000000 
Rear_Toe3_02 0.000000 0.000000 0.000000 0.000000 0.000000 0.000000 10.000000 
Rear_Toe3_03 0.000000 0.000000 0.000000 0.000000 0.000000 0.000000 10.000000 
Back_Bone 0.000000 0.000000 0.000000 0.000000 0.000000 0.000000 10.000000 
Head 0.000000 0.000000 0.000000 0.000000 0.000000 0.000000 10.000000 
Motor_Bone 0.000000 0.000000 0.000000 0.000000 0.000000 0.000000 10.000000 
Ping_Mechanism 0.000000 0.000000 0.000000 0.000000 0.000000 0.000000 10.000000 
BN_LookIK 0.000000 0.000000 0.000000 0.000000 0.000000 0.000000 10.000000 
bottomMouth 0.000000 0.000000 0.000000 0.000000 0.000000 0.000000 10.000000 
L_Mouth01 0.000000 0.000000 0.000000 0.000000 0.000000 0.000000 10.000000 
L_mouthFront 0.000000 0.000000 0.000000 0.000000 0.000000 0.000000 10.000000 
mouthGun 0.000000 0.000000 0.000000 0.000000 0.000000 0.000000 10.000000 
R_Mouth01 0.000000 0.000000 0.000000 0.000000 0.000000 0.000000 10.000000 
R_mouthFront 0.000000 0.000000 0.000000 0.000000 0.000000 0.000000 10.000000 
TopMouth 0.000000 0.000000 0.000000 0.000000 0.000000 0.000000 10.000000 
weapon_bone 0.000000 0.000000 0.000000 0.000000 0.000000 0.000000 10.000000 
#Beginning of Data. Separated by tabs
#Fr	Tx	Ty	Tz	Rx	Ry	Rz	SF
[Pinger_Root]
526 0.000000 -5661.408203 0.000000 -0.000075 -0.000000 -0.000020 5661.408203
527 0.000000 -5666.792480 0.000000 -0.000075 -0.000000 -0.000020 5666.792480
528 0.000000 -5672.175781 0.000000 -0.000075 -0.000000 -0.000020 5672.175781
[Pelvis]
526 1438.790649 20893.642578 7057.292969 -175.053299 -86.659828 162.243927 22100.222656
527 1438.788086 20899.005859 7057.290527 -175.100281 -86.656548 162.292267 22105.291016
528 1439.368042 20904.271484 7057.856934 -175.147141 -86.653206 162.340530 22110.488281
[L_Hip]
526 5.766392 125.831482 872.656799 160.158691 -45.484905 122.312202 881.701050
527 5.766392 125.831482 872.656799 160.158691 -45.484905 122.312202 881.701050
528 5.766392 125.831482 872.656799 160.158691 -45.484905 122.312202 881.701050
[R_Hip]
526 5.765438 125.836372 -872.654907 38.087841 49.812687 125.703735 881.699829
527 5.765438 125.836372 -872.654907 38.087841 49.812687 125.703735 881.699829
528 5.765438 125.836372 -872.654907 38.087841 49.812687 125.703735 881.699829
[Rear_Leg01]
526 -192.298416 -925.602966 -0.001907 169.614380 1.716082 -159.688934 945.367432
527 -192.298416 -925.602966 -0.001907 169.612778 1.710202 -159.686371 945.367432
528 -192.298416 -925.602966 -0.001907 169.611191 1.704322 -159.683807 945.367432
[Spine1]
526 290.604584 5.007505 0.000477 7.308183 -0.396039 19.284863 290.647736
527 290.604584 5.007505 0.000477 7.309473 -0.392450 19.286436 290.647736
528 290.604584 5.007505 0.000477 7.336142 -0.357531 19.374094 290.647736
[L_Leg01]
526 761.932007 -0.002384 -0.069261 22.891914 -15.645190 -8.857206 761.932068
527 761.932007 -0.002384 -0.069261 22.894890 -15.643985 -8.853307 761.932068
528 761.932007 -0.002384 -0.069261 22.897865 -15.642779 -8.849406 761.932068
[L_Leg02]
526 1441.140503 -0.000954 -0.000715 2.614593 -0.183603 -129.108109 1441.140503
527 1441.140503 -0.000954 -0.000715 2.614774 -0.183496 -129.110031 1441.140503
528 1441.140503 -0.000954 -0.000715 2.614955 -0.183389 -129.111954 1441.140503
[L_Leg03]
526 1686.963989 -0.000715 -0.000954 -0.029952 0.014704 118.082497 1686.963989
527 1686.963989 -0.000715 -0.000954 -0.029952 0.014704 118.081734 1686.963989
528 1686.963989 -0.000715 -0.000954 -0.029952 0.014704 118.080956 1686.963989
[L_Foot]
526 3041.570068 -30.715107 11.297464 1.939638 13.079929 55.423290 3041.746094
527 3041.570068 -30.715107 11.297464 1.940192 13.079947 55.421429 3041.746094
528 3041.570068 -30.715107 11.297464 1.940746 13.079965 55.419559 3041.746094
[L_Toe1_01]
526 -188.216690 -224.732346 -21.137953 93.722214 -6.898381 -171.977295 293.899567
527 -188.216690 -224.732346 -21.137953 93.722221 -6.898083 -171.977127 293.899567
528 -188.216690 -224.732346 -21.137953 93.722244 -6.897785 -171.976959 293.899567
[L_Toe2_01]
526 200.746536 -219.926590 148.838394 -90.026665 -26.366943 -52.645988 332.896027
527 200.746536 -219.926590 148.838394 -90.026627 -26.366034 -52.646564 332.896027
528 200.746536 -219.926590 148.838394 -90.026596 -26.365116 -52.647144 332.896027
[L_Toe3_01]
526 188.832520 -219.859131 -191.078659 -99.764275 13.819558 -67.609352 347.140900
527 188.832520 -219.859131 -191.078659 -99.764610 13.820016 -67.610489 347.140900
528 188.832520 -219.859131 -191.078659 -99.764969 13.820482 -67.611618 347.140900
[planeAlignerLeft]
526 0.812531 -811.448792 -0.314951 0.000000 -90.000000 -90.001900 811.449280
527 0.812531 -811.448792 -0.314951 0.000000 -90.000000 -90.001900 811.449280
528 0.812531 -811.448792 -0.314951 0.000000 -90.000000 -90.001900 811.449280
[L_Toe1_02]
526 413.761139 0.000477 0.000000 0.001384 -25.937883 0.001384 413.761139
527 413.761139 0.000477 0.000000 0.001384 -25.937830 0.001384 413.761139
528 413.761139 0.000477 0.000000 0.001384 -25.937784 0.001384 413.761139
[L_Toe1_03]
526 464.317322 0.000358 -0.000089 0.003725 53.273693 0.003725 464.317322
527 464.317322 0.000358 -0.000089 0.003725 53.275059 0.003725 464.317322
528 464.317322 0.000358 -0.000089 0.003726 53.276413 0.003726 464.317322
[L_Toe2_02]
526 342.235809 -0.000477 0.000238 0.001188 -72.419464 0.001188 342.235809
527 342.235809 -0.000477 0.000238 0.001188 -72.419090 0.001188 342.235809
528 342.235809 -0.000477 0.000238 0.001188 -72.418724 0.001188 342.235809
[L_Toe2_03]
526 420.210846 -0.000715 0.000000 0.029437 85.430222 0.029437 420.210846
527 420.210846 -0.000715 0.000000 0.029434 85.429581 0.029434 420.210846
528 420.210846 -0.000715 0.000000 0.029430 85.429070 0.029430 420.210846
[L_Toe3_02]
526 329.270111 0.000954 0.000000 0.001178 -80.516762 0.001178 329.270111
527 329.270111 0.000954 0.000000 0.001178 -80.516457 0.001178 329.270111
528 329.270111 0.000954 0.000000 0.001178 -80.516205 0.001178 329.270111
[L_Toe3_03]
526 439.137451 -0.001907 0.000954 -179.996063 78.431419 -179.992554 439.137451
527 439.137451 -0.001907 0.000954 -179.996063 78.431572 -179.992554 439.137451
528 439.137451 -0.001907 0.000954 -179.996063 78.431770 -179.992554 439.137451
[planeLockWeightLeft]
526 -0.000954 0.000238 -0.000305 -0.011826 -0.004376 0.005620 0.001029
527 -0.000954 0.000238 -0.000305 -0.011826 -0.004376 0.005620 0.001029
528 -0.000954 0.000238 -0.000305 -0.011826 -0.004376 0.005620 0.001029
[R_Leg01]
526 761.455627 -0.001907 -0.000358 122.791161 -14.190164 31.917854 761.455688
527 761.455627 -0.001907 -0.000358 122.786583 -14.175515 31.926691 761.455688
528 761.455627 -0.001907 -0.000358 122.781998 -14.160863 31.935524 761.455688
[R_Leg02]
526 1441.140625 0.000000 -0.000238 -0.647035 -0.102487 -126.685806 1441.140625
527 1441.140625 0.000000 -0.000238 -0.647268 -0.102634 -126.672760 1441.140625
528 1441.140625 0.000000 -0.000238 -0.647501 -0.102781 -126.659714 1441.140625
[R_Leg03]
526 1686.963989 0.000954 0.001431 0.068081 -0.034911 128.535065 1686.963989
527 1686.963989 0.000954 0.001431 0.068077 -0.034918 128.546555 1686.963989
528 1686.963989 0.000954 0.001431 0.068074 -0.034924 128.558029 1686.963989
[R_Foot]
526 3041.560059 -30.531288 -11.204481 -0.487022 -23.049555 58.948605 3041.734131
527 3041.560059 -30.531288 -11.204481 -0.487498 -23.050043 58.940086 3041.734131
528 3041.560059 -30.531288 -11.204481 -0.487972 -23.050535 58.931568 3041.734131
[planeAlignerRight]
526 -0.635147 -812.270569 -0.364304 0.000000 -89.960434 -90.005180 812.270874
527 -0.635147 -812.270569 -0.364304 0.000000 -89.960434 -90.005180 812.270874
528 -0.635147 -812.270569 -0.364304 0.000000 -89.960434 -90.005180 812.270874
[R_Toe1_01]
526 -188.383347 -224.864899 21.052242 76.763771 -0.391307 -172.890717 294.101532
527 -188.383347 -224.864899 21.052242 76.764008 -0.392127 -172.884781 294.101532
528 -188.383347 -224.864899 21.052242 76.764229 -0.392947 -172.878845 294.101532
[R_Toe2_01]
526 200.637817 -220.002121 -148.787384 -91.706627 32.950829 -59.072155 332.857574
527 200.637817 -220.002121 -148.787384 -91.708023 32.948151 -59.076283 332.857574
528 200.637817 -220.002121 -148.787384 -91.709404 32.945484 -59.080391 332.857574
[R_Toe3_01]
526 188.606735 -220.092957 191.126343 -73.240486 -8.454308 -73.620667 347.192566
527 188.606735 -220.092957 191.126343 -73.239967 -8.454370 -73.625511 347.192566
528 188.606735 -220.092957 191.126343 -73.239471 -8.454442 -73.630371 347.192566
[planeLockWeightRight]
526 -0.000477 0.000000 0.000000 -0.011823 -0.004379 -0.000027 0.000477
527 -0.000477 0.000000 0.000000 -0.011823 -0.004379 -0.000027 0.000477
528 -0.000477 0.000000 0.000000 -0.011823 -0.004379 -0.000027 0.000477
[R_Toe1_02]
526 413.762085 0.000477 -0.000119 0.001395 -24.589666 0.001395 413.762085
527 413.762085 0.000477 -0.000119 0.001395 -24.591955 0.001395 413.762085
528 413.762085 0.000477 -0.000119 0.001395 -24.594248 0.001395 413.762085
[R_Toe1_03]
526 464.317810 0.000000 0.001088 0.006676 69.749069 0.006676 464.317810
527 464.317810 0.000000 0.001088 0.006674 69.743538 0.006674 464.317810
528 464.317810 0.000000 0.001088 0.006672 69.738007 0.006672 464.317810
[R_Toe2_02]
526 342.234741 -0.000954 0.000238 0.001197 -67.312103 0.001197 342.234741
527 342.234741 -0.000954 0.000238 0.001197 -67.307312 0.001197 342.234741
528 342.234741 -0.000954 0.000238 0.001197 -67.302498 0.001197 342.234741
[R_Toe2_03]
526 420.210846 0.000715 -0.000268 0.008284 73.710953 0.008284 420.210846
527 420.210846 0.000715 -0.000268 0.008282 73.707397 0.008282 420.210846
528 420.210846 0.000715 -0.000268 0.008281 73.703873 0.008281 420.210846
[R_Toe3_02]
526 329.270355 -0.000477 -0.000954 0.001184 -74.647575 0.001184 329.270355
527 329.270355 -0.000477 -0.000954 0.001184 -74.643288 0.001184 329.270355
528 329.270355 -0.000477 -0.000954 0.001184 -74.638931 0.001184 329.270355
[R_Toe3_03]
526 439.137939 0.000238 0.001431 -0.012118 83.644119 -0.008616 439.137939
527 439.137939 0.000238 0.001431 -0.012096 83.630493 -0.008594 439.137939
528 439.137939 0.000238 0.001431 -0.012074 83.616783 -0.008572 439.137939
[Rear_Leg02]
526 1162.777710 -0.029802 0.005960 1.190283 -5.908564 -123.697311 1162.777710
527 1162.777710 -0.029802 0.005960 1.190766 -5.908326 -123.702415 1162.777710
528 1162.777710 -0.029802 0.005960 1.191248 -5.908087 -123.707527 1162.777710
[Rear_Leg03]
526 607.192505 -0.013351 -0.073195 0.006471 -0.002121 64.505234 607.192505
527 607.192505 -0.013351 -0.073195 0.006471 -0.002121 64.507141 607.192505
528 607.192505 -0.013351 -0.073195 0.006471 -0.002121 64.509064 607.192505
[Rear_Leg04]
526 995.874512 -0.020504 -0.011921 -0.040559 -0.015050 58.556873 995.874573
527 995.874512 -0.020504 -0.011921 -0.040559 -0.015048 58.560963 995.874573
528 995.874512 -0.020504 -0.011921 -0.040560 -0.015047 58.565067 995.874573
[Rear_Foot]
526 3096.176270 -0.067472 -0.041425 -136.434021 82.789719 56.265736 3096.176270
527 3096.176270 -0.067472 -0.041425 -136.435303 82.790161 56.264107 3096.176270
528 3096.176270 -0.067472 -0.041425 -136.436646 82.790619 56.262501 3096.176270
[planeAlignerCenter]
526 0.350077 0.966311 -838.790894 0.000009 0.000003 -179.999985 838.791565
527 0.350077 0.966311 -838.790894 0.000009 0.000003 -179.999985 838.791565
528 0.350077 0.966311 -838.790894 0.000009 0.000003 -179.999985 838.791565
[Rear_Toe1_01]
526 0.653352 83.966492 -371.173737 0.287413 41.838528 90.410713 380.553192
527 0.653352 83.966492 -371.173737 0.287401 41.841896 90.410728 380.553192
528 0.653352 83.966492 -371.173737 0.287386 41.845264 90.410744 380.553192
[Rear_Toe2_01]
526 178.200760 -294.826019 -362.060547 -7.202602 34.355793 -66.266930 499.765686
527 178.200760 -294.826019 -362.060547 -7.202302 34.358204 -66.267090 499.765686
528 178.200760 -294.826019 -362.060547 -7.201999 34.360619 -66.267250 499.765686
[Rear_Toe3_01]
526 -153.359680 -308.780914 -362.060852 3.292031 33.468700 -112.545807 499.952881
527 -153.359680 -308.780914 -362.060852 3.291943 33.471050 -112.545624 499.952881
528 -153.359680 -308.780914 -362.060852 3.291848 33.473392 -112.545425 499.952881
[planeLockWeightCenter]
526 -0.000062 0.000238 0.000000 -0.011814 -0.004373 -0.000015 0.000246
527 -0.000062 0.000238 0.000000 -0.011814 -0.004373 -0.000015 0.000246
528 -0.000062 0.000238 0.000000 -0.011814 -0.004373 -0.000015 0.000246
[Rear_Toe1_02]
526 379.707825 0.194073 0.000477 -0.000244 -31.700684 0.006935 379.707855
527 379.707825 0.194073 0.000477 -0.000244 -31.699650 0.006935 379.707855
528 379.707825 0.194073 0.000477 -0.000244 -31.698601 0.006935 379.707855
[Rear_Toe1_03]
526 500.129700 0.165701 0.000119 -0.000089 52.041130 0.007306 500.129761
527 500.129700 0.165701 0.000119 -0.000090 52.035248 0.007306 500.129761
528 500.129700 0.165701 0.000119 -0.000090 52.029377 0.007305 500.129761
[Rear_Toe2_02]
526 340.494507 0.000238 -0.000954 0.001192 -69.916672 0.001192 340.494507
527 340.494507 0.000238 -0.000954 0.001192 -69.913902 0.001192 340.494507
528 340.494507 0.000238 -0.000954 0.001192 -69.911125 0.001192 340.494507
[Rear_Toe2_03]
526 433.103577 0.000000 0.000238 0.006726 69.902817 0.006726 433.103546
527 433.103577 0.000000 0.000238 0.006725 69.898697 0.006725 433.103546
528 433.103577 0.000000 0.000238 0.006723 69.894554 0.006723 433.103546
[Rear_Toe3_02]
526 340.494141 -0.000358 -0.000477 0.008313 -67.338577 -0.009485 340.494171
527 340.494141 -0.000358 -0.000477 0.008311 -67.335709 -0.009484 340.494171
528 340.494141 -0.000358 -0.000477 0.008310 -67.332832 -0.009483 340.494171
[Rear_Toe3_03]
526 433.103577 0.001431 -0.000238 -0.000983 66.052483 -0.004558 433.103546
527 433.103577 0.001431 -0.000238 -0.000983 66.048271 -0.004557 433.103546
528 433.103577 0.001431 -0.000238 -0.000982 66.044075 -0.004557 433.103546
[Back_Bone]
526 1312.175781 -701.934692 0.000954 2.744322 -1.407708 -85.678963 1488.125488
527 1312.175781 -701.934692 0.000954 2.744142 -1.407514 -85.678955 1488.125488
528 1312.175781 -701.934692 0.000954 2.743962 -1.407321 -85.678925 1488.125488
[Head]
526 1406.159424 809.709290 0.001431 -1.595022 2.634247 7.768234 1622.625488
527 1406.159424 809.709290 0.001431 -1.594905 2.634011 7.768239 1622.625488
528 1406.159424 809.709290 0.001431 -1.594788 2.633775 7.768244 1622.625488
[Motor_Bone]
526 1158.364380 -417.834747 0.000477 3.387906 -1.295678 -115.951317 1231.419434
527 1158.364380 -417.834747 0.000477 3.384690 -1.295409 -115.943542 1231.419434
528 1158.364380 -417.834747 0.000477 3.381473 -1.295140 -115.935745 1231.419434
[Ping_Mechanism]
526 1233.685059 -442.439545 -1.789641 0.000103 -0.000053 82.120995 1310.623779
527 1233.674927 -442.443939 -1.811627 0.000103 -0.000053 82.120995 1310.615845
528 1233.664795 -442.448303 -1.833611 0.000103 -0.000053 82.120995 1310.607666
[BN_LookIK]
526 193.241119 1380.371704 -0.002861 0.000000 89.965736 -31.038179 1393.832153
527 193.241119 1380.371704 -0.002861 0.000000 89.965736 -31.038179 1393.832153
528 193.241119 1380.371704 -0.002861 0.000000 89.965736 -31.038179 1393.832153
[bottomMouth]
526 -435.092926 615.759399 -0.000954 -0.000022 0.000016 73.527184 753.966492
527 -435.092926 615.759399 -0.000954 -0.000022 0.000016 73.527184 753.966492
528 -435.092926 615.759399 -0.000954 -0.000022 0.000016 73.527184 753.966492
[L_Mouth01]
526 554.440979 7.658243 838.222046 150.204178 23.759130 109.605339 1005.027161
527 554.440979 7.658243 838.222046 150.204178 23.759130 109.605339 1005.027161
528 554.440979 7.658243 838.222046 150.204178 23.759130 109.605339 1005.027161
[L_mouthFront]
526 551.629089 934.514771 339.150421 0.000081 2.804060 79.119301 1136.941284
527 551.629089 934.514771 339.150421 0.000081 2.804060 79.119301 1136.941284
528 551.629089 934.514771 339.150421 0.000081 2.804060 79.119301 1136.941284
[mouthGun]
526 55.332661 1627.420898 0.000000 0.000023 0.000009 -11.038128 1628.361328
527 55.332661 1627.420898 0.000000 0.000023 0.000009 -11.038128 1628.361328
528 55.332661 1627.420898 0.000000 0.000023 0.000009 -11.038128 1628.361328
[R_Mouth01]
526 554.442383 7.659197 -838.223938 29.795891 -23.759109 109.605331 1005.029541
527 554.442383 7.659197 -838.223938 29.795891 -23.759109 109.605331 1005.029541
528 554.442383 7.659197 -838.223938 29.795891 -23.759109 109.605331 1005.029541
[R_mouthFront]
526 551.629089 934.514282 -339.151367 0.000029 -2.803930 79.119133 1136.941162
527 551.629089 934.514282 -339.151367 0.000029 -2.803930 79.119133 1136.941162
528 551.629089 934.514282 -339.151367 0.000029 -2.803930 79.119133 1136.941162
[TopMouth]
526 461.269867 -56.106091 -0.008583 -0.000059 -0.000268 92.025169 464.669525
527 461.269867 -56.106091 -0.008583 -0.000059 -0.000268 92.025169 464.669525
528 461.269867 -56.106091 -0.008583 -0.000059 -0.000268 92.025169 464.669525
[weapon_bone]
526 -987.239868 1448.372803 0.001431 0.000000 89.965736 -31.038221 1752.833740
527 -987.239868 1448.372803 0.001431 0.000000 89.965736 -31.038221 1752.833740
528 -987.239868 1448.372803 0.001431 0.000000 89.965736 -31.038221 1752.833740
